<svg xmlns="http://www.w3.org/2000/svg" xmlns:xlink="http://www.w3.org/1999/xlink" viewBox="0 0 451.96 382.52"><defs><style>.cls-1{fill:none;}.cls-2{clip-path:url(#clip-path);}.cls-3{fill:#fff;}</style><clipPath id="clip-path" transform="translate(-17.02 -47.41)"><rect class="cls-1" width="486" height="486"/></clipPath></defs><title>Zn</title><g id="Layer_2" data-name="Layer 2"><g id="Layer_10" data-name="Layer 10"><g class="cls-2"><path class="cls-3" d="M309.88,53.32a6,6,0,0,0-2.65-4.52l-.47-.32-.53-.17c-.27-.09-.48-.18-.68-.26a7.8,7.8,0,0,0-2.95-.64c-2,0-3.87.83-8.28,3-32.65,14.92-48.61,21.1-73.1,26l-.2,0c-9.13,2.28-18.57,3.38-34.22,5.19l-13,1.53c-41.11,4.78-57.74,8.64-77.44,18-33.9,16.95-55,47.9-55,80.77,0,20.33,10.16,42.21,32.47,42.21C94,224.16,108.77,206,113,188c2.69-11.42.42-20.17-6.08-23.42a14.2,14.2,0,0,0-6.25-1.68,7.94,7.94,0,0,0-5.67,2.2,7.21,7.21,0,0,0,2.92,12c-.38,3.49-3.45,12.22-10,20.52-3.38,4.26-10.19,11.39-18,11.39-5.38,0-13.35-8.27-13.35-26,0-27.2,17.75-52.78,47.47-68.43,18.15-9.55,33-12.36,74.54-17.09,41.12-4.47,64.88-9,85.05-16.65C190.29,183.16,173,199,126.81,236.19L113.34,247c-1.61,0-3.22,0-4.82,0l-6.23,0c-14.74,0-29.9.77-39.2,10.07A5.52,5.52,0,0,0,62,263.11c1.23,3,5.19,5.9,8,5.9h.52l.5-.13a45.73,45.73,0,0,0,9.46-3.51c3.47-1.64,6.59-3.12,15-3.79L90,266.93c-32.52,31.75-73,71.25-73,128.51,0,16.61,2.28,24.49,9.08,31.3A11.18,11.18,0,0,0,34,429.93c5.46,0,10.82-3.75,14.32-10,7.55-13.55,29.3-33.31,48.45-40a25.91,25.91,0,0,1,8.77-1.62c16.33,0,28.46,17.44,37.31,30.18,4,5.72,6.9,9.91,9.81,12.06a10.25,10.25,0,0,0,6.83,3.23,5.76,5.76,0,0,0,5-2.77c1.48-2.47,1.1-5.82-1.13-10l-.53-.92c-9.11-15.59-28.07-48-59.75-48-16.68,0-34.39,9.26-52.64,27.51a154.38,154.38,0,0,0-12.24,14.22c.41-11.84,2.25-25.67,10.19-41.55,16.56-33.12,50.1-57.67,74.6-75.6,6.17-4.52,12-8.79,16.83-12.65l6.87-5.34,1.88.77c9.66,4,18,7.37,29.67,7.37a68.8,68.8,0,0,0,11.36-1l.14,0c8.45-1.69,9.33-5.76,9.11-8-.42-4.17-5.11-6.66-9.4-6.66a9.67,9.67,0,0,0-4.36,1c-.42.2-2.64.76-7.19.76a67.63,67.63,0,0,1-19.7-3.05l8-6.31c62.14-50.84,87.54-89,115.19-145.7C289.25,91.39,298.7,72.22,302,68.9,302.11,68.82,310.5,59.6,309.88,53.32Z" transform="translate(-17.02 -47.41)"/><path class="cls-3" d="M468.51,292.2c-11.24,22.8-96.31,98.77-133.14,91C242.32,362.3,432.59,197.62,407,182.14c-10.61-6.4-47,9.37-89.46,42.83-24.27,18.89-45.14,39.3-67.64,64.28-28,29.57-26.35,33.21-45.91,64.92-12.36,20.06-43.68,6.8-40.22-3.31,1.68-4.9,36.8-61.54,39.34-66.16,19.78-33.5,59.17-98.13,65.77-105.79,9.17-10.66,33.74-7,32.64,4.35-1,9.8-19.92,36.92-49.69,86.1,12.83-10.56,69.25-72.78,124.86-94.15,37.08-14.24,53.18,6.32,51.57,27.09C425,244,308.11,368.25,336.4,372.7c39.79,3.57,113.11-70.45,121.91-85.1C461.5,282.55,471.22,286.71,468.51,292.2Z" transform="translate(-17.02 -47.41)"/></g></g></g></svg>